<svg width="151" height="50" viewBox="0 0 151 50" fill="none" xmlns="http://www.w3.org/2000/svg">
<path d="M13.8926 27.6641H7.9043L2.54492 13.0352H1.23242V8.48242H11.0898V13.0352H9.66797L11.9102 21.2246L14.7539 13.0352H13.3457V8.48242H21.6309V13.0352H20.2227L23.1074 21.2246L25.377 13.0352H24.0098V8.48242H31.6797V13.0352H30.3672L24.9531 27.6641H19.0469L16.4766 20.3359L13.8926 27.6641ZM43.752 27.5H32.9102V22.9473H34.6602V13.0352H32.9102V8.48242H43.752V13.0352H42.0156V22.9473H43.752V27.5ZM53.4727 27.5H45.666V22.9473H47.334V13.0352H45.666V8.48242H54.6758L61.5938 18.4219V13.0352H60.0488V8.48242H67.7188V13.0352H66.0645V27.7461H59.8027L51.791 16.248V22.9473H53.4727V27.5ZM81.5684 27.6641H75.5801L70.2207 13.0352H68.9082V8.48242H78.7656V13.0352H77.3438L79.5859 21.2246L82.4297 13.0352H81.0215V8.48242H89.3066V13.0352H87.8984L90.7832 21.2246L93.0527 13.0352H91.6855V8.48242H99.3555V13.0352H98.043L92.6289 27.6641H86.7227L84.1523 20.3359L81.5684 27.6641ZM111.428 27.5H100.586V22.9473H102.336V13.0352H100.586V8.48242H111.428V13.0352H109.691V22.9473H111.428V27.5ZM117.977 27.5H113.697V21.4023H117.977C118.487 23.0612 119.449 23.8906 120.861 23.8906C121.882 23.8906 122.393 23.4805 122.393 22.6602C122.393 22.2318 122.215 21.8763 121.859 21.5938C121.477 21.2839 120.67 20.8555 119.439 20.3086C117.89 19.6068 116.751 19.0007 116.021 18.4902C115.338 18.0254 114.755 17.3828 114.271 16.5625C113.788 15.7513 113.547 14.8535 113.547 13.8691C113.547 12.1009 114.121 10.7201 115.27 9.72656C116.409 8.73307 117.812 8.23633 119.48 8.23633C121.148 8.23633 122.561 8.71029 123.719 9.6582V8.48242H128.025V13.8965H123.773C123.254 12.4017 122.333 11.6543 121.012 11.6543C120.082 11.6543 119.617 12.0508 119.617 12.8438C119.617 13.2266 119.749 13.5137 120.014 13.7051C120.269 13.9056 121.094 14.3477 122.488 15.0312C124.357 15.9609 125.605 16.64 126.234 17.0684C126.553 17.278 126.877 17.5742 127.205 17.957C127.542 18.3307 127.82 18.7181 128.039 19.1191C128.54 20.0124 128.791 20.9785 128.791 22.0176C128.791 23.6126 128.199 24.9616 127.014 26.0645C125.829 27.1855 124.334 27.7461 122.529 27.7461C120.852 27.7461 119.335 27.2493 117.977 26.2559V27.5ZM149.34 27.5H131.197V22.9473H132.674V13.0352H131.17V8.48242H149.34V14.5664H144.35V13.0352H140.029V15.9609H143.789V19.8301H140.029V22.9473H144.35V21.416H149.34V27.5Z" fill="white"/>
<path d="M0.88 45.5L4.768 37.04H6.268L10.156 45.5H8.284L7.492 43.664H3.544L2.764 45.5H0.88ZM5.5 39.02L4.168 42.212H6.88L5.524 39.02H5.5ZM12.9646 45.632C12.4526 45.632 12.0006 45.508 11.6086 45.26C11.2246 45.004 10.9246 44.648 10.7086 44.192C10.4926 43.728 10.3846 43.18 10.3846 42.548C10.3846 41.916 10.4926 41.372 10.7086 40.916C10.9246 40.46 11.2246 40.108 11.6086 39.86C12.0006 39.612 12.4526 39.488 12.9646 39.488C13.3566 39.488 13.7166 39.572 14.0446 39.74C14.3726 39.908 14.6206 40.132 14.7886 40.412V37.04H16.6006V45.5H14.8246V44.612C14.6646 44.924 14.4166 45.172 14.0806 45.356C13.7526 45.54 13.3806 45.632 12.9646 45.632ZM13.5046 44.276C13.8886 44.276 14.2006 44.136 14.4406 43.856C14.6886 43.576 14.8126 43.14 14.8126 42.548C14.8126 41.964 14.6886 41.536 14.4406 41.264C14.2006 40.984 13.8886 40.844 13.5046 40.844C13.1206 40.844 12.8086 40.984 12.5686 41.264C12.3286 41.536 12.2086 41.964 12.2086 42.548C12.2086 43.14 12.3286 43.576 12.5686 43.856C12.8086 44.136 13.1206 44.276 13.5046 44.276ZM18.0208 45.5V39.608H19.7968V40.46C19.9728 40.156 20.2128 39.92 20.5168 39.752C20.8288 39.576 21.1888 39.488 21.5968 39.488C22.0128 39.488 22.3648 39.58 22.6528 39.764C22.9488 39.948 23.1728 40.228 23.3248 40.604C23.5088 40.252 23.7728 39.98 24.1168 39.788C24.4688 39.588 24.8568 39.488 25.2808 39.488C25.9528 39.488 26.4528 39.692 26.7808 40.1C27.1088 40.5 27.2728 41.12 27.2728 41.96V45.5H25.4608V42.02C25.4608 41.628 25.3968 41.344 25.2688 41.168C25.1488 40.984 24.9408 40.892 24.6448 40.892C24.3008 40.892 24.0328 41.012 23.8408 41.252C23.6488 41.492 23.5528 41.832 23.5528 42.272V45.5H21.7408V42.02C21.7408 41.628 21.6768 41.344 21.5488 41.168C21.4208 40.984 21.2128 40.892 20.9248 40.892C20.5808 40.892 20.3128 41.012 20.1208 41.252C19.9288 41.492 19.8328 41.832 19.8328 42.272V45.5H18.0208ZM28.5888 38.468V36.776H30.5448V38.468H28.5888ZM28.6608 45.5V39.608H30.4728V45.5H28.6608ZM31.8718 45.5V39.608H33.6478V40.472C33.8478 40.152 34.1158 39.908 34.4518 39.74C34.7878 39.572 35.1638 39.488 35.5798 39.488C36.2758 39.488 36.7958 39.692 37.1398 40.1C37.4838 40.5 37.6558 41.12 37.6558 41.96V45.5H35.8438V42.044C35.8438 41.636 35.7678 41.344 35.6158 41.168C35.4638 40.984 35.2398 40.892 34.9438 40.892C34.5598 40.892 34.2518 41.012 34.0198 41.252C33.7958 41.492 33.6838 41.812 33.6838 42.212V45.5H31.8718ZM42.3483 47.66V39.608H44.1243V40.484C44.2843 40.18 44.5283 39.94 44.8563 39.764C45.1923 39.58 45.5683 39.488 45.9843 39.488C46.4963 39.488 46.9443 39.612 47.3283 39.86C47.7203 40.108 48.0243 40.46 48.2403 40.916C48.4563 41.372 48.5643 41.916 48.5643 42.548C48.5643 43.18 48.4563 43.728 48.2403 44.192C48.0243 44.648 47.7203 45.004 47.3283 45.26C46.9443 45.508 46.4963 45.632 45.9843 45.632C45.5923 45.632 45.2323 45.548 44.9043 45.38C44.5843 45.212 44.3363 44.988 44.1603 44.708V47.66H42.3483ZM45.4443 44.276C45.8283 44.276 46.1403 44.136 46.3803 43.856C46.6203 43.576 46.7403 43.14 46.7403 42.548C46.7403 41.964 46.6203 41.536 46.3803 41.264C46.1403 40.984 45.8283 40.844 45.4443 40.844C45.0523 40.844 44.7363 40.984 44.4963 41.264C44.2563 41.536 44.1363 41.964 44.1363 42.548C44.1363 43.14 44.2563 43.576 44.4963 43.856C44.7363 44.136 45.0523 44.276 45.4443 44.276ZM51.6646 45.632C51.2246 45.632 50.8366 45.548 50.5006 45.38C50.1646 45.212 49.8966 44.984 49.6966 44.696C49.5046 44.408 49.4086 44.084 49.4086 43.724C49.4086 43.3 49.5206 42.96 49.7446 42.704C49.9686 42.448 50.3326 42.268 50.8366 42.164C51.3406 42.052 52.0086 41.996 52.8406 41.996H53.2726V41.792C53.2726 41.44 53.1926 41.192 53.0326 41.048C52.8726 40.896 52.6006 40.82 52.2166 40.82C51.8966 40.82 51.5566 40.872 51.1966 40.976C50.8446 41.072 50.4926 41.22 50.1406 41.42L49.6486 40.208C49.8566 40.072 50.1086 39.948 50.4046 39.836C50.7086 39.724 51.0246 39.64 51.3526 39.584C51.6806 39.52 51.9926 39.488 52.2886 39.488C53.2006 39.488 53.8806 39.696 54.3286 40.112C54.7766 40.52 55.0006 41.156 55.0006 42.02V45.5H53.3086V44.612C53.1886 44.924 52.9846 45.172 52.6966 45.356C52.4166 45.54 52.0726 45.632 51.6646 45.632ZM52.0726 44.42C52.4086 44.42 52.6926 44.304 52.9246 44.072C53.1566 43.84 53.2726 43.54 53.2726 43.172V42.932H52.8526C52.2366 42.932 51.8006 42.988 51.5446 43.1C51.2886 43.204 51.1606 43.388 51.1606 43.652C51.1606 43.876 51.2366 44.06 51.3886 44.204C51.5486 44.348 51.7766 44.42 52.0726 44.42ZM56.3523 45.5V39.608H58.1283V40.472C58.3283 40.152 58.5963 39.908 58.9323 39.74C59.2683 39.572 59.6443 39.488 60.0603 39.488C60.7563 39.488 61.2763 39.692 61.6203 40.1C61.9643 40.5 62.1363 41.12 62.1363 41.96V45.5H60.3243V42.044C60.3243 41.636 60.2483 41.344 60.0963 41.168C59.9443 40.984 59.7203 40.892 59.4243 40.892C59.0403 40.892 58.7323 41.012 58.5003 41.252C58.2763 41.492 58.1643 41.812 58.1643 42.212V45.5H56.3523ZM66.549 45.632C65.853 45.632 65.253 45.508 64.749 45.26C64.253 45.004 63.869 44.648 63.597 44.192C63.333 43.728 63.201 43.184 63.201 42.56C63.201 41.952 63.329 41.42 63.585 40.964C63.849 40.5 64.205 40.14 64.653 39.884C65.109 39.62 65.633 39.488 66.225 39.488C67.081 39.488 67.761 39.76 68.265 40.304C68.769 40.84 69.021 41.568 69.021 42.488V42.944H64.929C64.993 43.408 65.161 43.748 65.433 43.964C65.713 44.172 66.097 44.276 66.585 44.276C66.905 44.276 67.229 44.228 67.557 44.132C67.885 44.036 68.181 43.888 68.445 43.688L68.925 44.9C68.629 45.124 68.265 45.304 67.833 45.44C67.409 45.568 66.981 45.632 66.549 45.632ZM66.297 40.688C65.913 40.688 65.601 40.804 65.361 41.036C65.129 41.268 64.985 41.592 64.929 42.008H67.521C67.473 41.128 67.065 40.688 66.297 40.688ZM72.2709 45.632C71.5109 45.632 70.9549 45.436 70.6029 45.044C70.2509 44.644 70.0749 44.052 70.0749 43.268V37.04H71.8869V43.196C71.8869 43.836 72.1709 44.156 72.7389 44.156C72.8269 44.156 72.9109 44.152 72.9909 44.144C73.0789 44.136 73.1629 44.12 73.2429 44.096L73.2189 45.5C72.9149 45.588 72.5989 45.632 72.2709 45.632Z" fill="white"/>
</svg>
